<?xml version="1.0" encoding="UTF-8" standalone="no"?>
<!DOCTYPE svg PUBLIC "-//W3C//DTD SVG 1.1//EN" "http://www.w3.org/Graphics/SVG/1.1/DTD/svg11.dtd">
<svg xmlns="http://www.w3.org/2000/svg" version="1.1" viewBox="0.00 0.00 437.00 272.00">
<path fill="#000000" d="
  M 120.64 91.76
  Q 107.87 78.61 89.32 79.56
  C 69.04 80.61 55.48 95.10 55.35 115.27
  C 55.16 145.68 86.07 158.56 110.91 146.72
  A 1.58 1.57 -12.9 0 0 111.81 145.30
  L 111.81 114.18
  A 0.54 0.54 0.0 0 1 112.35 113.64
  L 134.82 113.64
  A 0.56 0.55 0.0 0 1 135.38 114.19
  L 135.38 157.56
  A 2.70 2.70 0.0 0 1 134.16 159.82
  C 130.80 162.04 126.80 164.56 123.09 166.11
  Q 98.18 176.49 73.28 170.94
  Q 61.25 168.26 50.48 159.87
  C 33.85 146.90 27.59 127.74 29.83 106.90
  Q 30.69 98.86 34.28 91.21
  Q 43.97 70.53 65.05 62.28
  C 88.51 53.10 118.98 56.47 136.90 76.20
  A 0.81 0.80 -42.7 0 1 136.85 77.32
  L 121.26 91.77
  A 0.45 0.44 -43.6 0 1 120.64 91.76
  Z"
/>
<path fill="#000000" d="
  M 178.67 115.25
  C 178.69 133.65 189.93 147.82 208.51 150.51
  Q 228.48 153.41 242.05 138.43
  A 0.79 0.78 -47.3 0 1 243.17 138.38
  L 258.55 152.62
  A 0.84 0.84 0.0 0 1 258.60 153.81
  Q 248.08 165.33 234.20 169.69
  C 195.21 181.95 152.70 159.02 152.66 115.28
  C 152.61 71.53 195.08 48.51 234.08 60.69
  Q 247.98 65.02 258.52 76.52
  A 0.84 0.84 0.0 0 1 258.47 77.71
  L 243.12 91.98
  A 0.79 0.78 47.2 0 1 242.00 91.94
  Q 228.40 76.98 208.44 79.92
  C 189.86 82.66 178.65 96.85 178.67 115.25
  Z"
/>
<path fill="#000000" d="
  M 277.20 171.42
  A 0.40 0.40 0.0 0 1 276.80 171.02
  L 276.80 60.25
  A 0.65 0.64 -0.0 0 1 277.45 59.61
  L 297.31 59.61
  A 1.37 1.37 0.0 0 1 298.48 60.27
  L 339.46 128.32
  A 0.55 0.55 0.0 0 0 340.41 128.32
  L 380.69 60.39
  A 1.62 1.62 0.0 0 1 382.08 59.60
  L 401.83 59.60
  A 0.72 0.72 0.0 0 1 402.55 60.32
  L 402.55 171.19
  A 0.23 0.23 0.0 0 1 402.32 171.42
  L 379.26 171.42
  A 0.81 0.81 0.0 0 1 378.45 170.61
  L 378.45 105.33
  A 0.44 0.44 0.0 0 0 377.63 105.11
  L 345.92 158.57
  A 1.97 1.96 -74.7 0 1 344.23 159.54
  L 335.09 159.54
  A 2.60 2.60 0.0 0 1 332.87 158.29
  L 301.53 106.24
  A 0.26 0.25 -47.3 0 0 301.08 106.26
  Q 300.82 106.81 300.82 107.75
  Q 300.79 127.62 300.84 170.85
  A 0.57 0.56 90.0 0 1 300.28 171.42
  L 277.20 171.42
  Z"
/>
<ellipse fill="#000000" cx="0.00" cy="0.00" transform="translate(329.34,198.25) rotate(0.7)" rx="3.54" ry="3.08"/>
<ellipse fill="#000000" cx="0.00" cy="0.00" transform="translate(365.78,198.23) rotate(0.1)" rx="3.37" ry="3.14"/>
<rect fill="#000000" x="-2.81" y="-13.59" transform="translate(50.35,210.39) rotate(0.1)" width="5.62" height="27.18" rx="0.66"/>
<path fill="#000000" d="
  M 88.26 222.52
  C 87.20 224.74 85.45 223.84 83.39 224.04
  Q 82.56 224.12 82.56 223.23
  Q 82.56 209.94 82.56 197.48
  A 0.65 0.64 -90.0 0 1 83.20 196.83
  L 87.54 196.83
  A 0.58 0.58 0.0 0 1 88.12 197.41
  L 88.12 204.78
  A 0.69 0.68 79.4 0 0 89.05 205.42
  L 91.18 204.60
  A 2.66 2.62 -59.5 0 1 91.63 204.48
  Q 99.64 203.30 102.62 209.04
  C 107.29 218.04 98.15 227.51 89.11 222.25
  A 0.61 0.61 0.0 0 0 88.26 222.52
  Z
  M 98.0714 213.1886
  A 4.34 4.34 0.0 0 0 93.7390 208.8410
  L 92.5790 208.8390
  A 4.34 4.34 0.0 0 0 88.2315 213.1714
  L 88.2286 214.8314
  A 4.34 4.34 0.0 0 0 92.5610 219.1790
  L 93.7210 219.1810
  A 4.34 4.34 0.0 0 0 98.0685 214.8486
  L 98.0714 213.1886
  Z"
/>
<rect fill="#000000" x="-2.77" y="-13.57" transform="translate(132.92,210.38) rotate(-0.1)" width="5.54" height="27.14" rx="0.58"/>
<path fill="#000000" d="
  M 36.92 211.30
  A 0.70 0.70 0.0 0 1 37.62 210.60
  L 41.34 210.60
  A 0.81 0.81 0.0 0 1 42.15 211.41
  L 42.15 219.99
  A 2.10 2.10 0.0 0 1 41.02 221.85
  C 36.37 224.25 30.63 225.23 25.92 223.02
  Q 17.06 218.86 18.42 208.53
  Q 19.17 202.76 24.08 199.97
  Q 32.69 195.09 41.01 200.47
  A 1.82 1.82 0.0 0 1 41.35 203.23
  L 40.31 204.36
  A 1.91 1.91 0.0 0 1 37.63 204.48
  C 33.25 200.56 25.04 202.84 24.15 209.19
  C 23.13 216.47 28.18 220.85 35.47 218.82
  A 1.98 1.98 0.0 0 0 36.92 216.91
  L 36.92 211.30
  Z"
/>
<path fill="#000000" d="
  M 156.10 211.01
  C 156.13 217.51 161.57 220.63 167.48 218.74
  A 2.09 1.89 -69.4 0 0 168.04 218.45
  L 170.12 216.92
  A 1.35 1.34 50.2 0 1 171.90 217.09
  L 173.75 219.09
  A 1.08 1.07 49.3 0 1 173.64 220.66
  C 164.76 227.73 150.35 223.65 150.29 211.03
  C 150.24 198.41 164.61 194.20 173.55 201.20
  A 1.08 1.07 -49.8 0 1 173.68 202.76
  L 171.85 204.78
  A 1.35 1.34 -50.8 0 1 170.07 204.97
  L 167.97 203.46
  A 2.09 1.89 68.9 0 0 167.41 203.17
  C 161.48 201.33 156.08 204.50 156.10 211.01
  Z"
/>
<path fill="#000000" d="
  M 306.27 213.97
  Q 306.35 213.97 306.41 213.94
  A 0.43 0.17 -67.3 0 0 306.61 213.74
  L 315.60 198.55
  A 0.94 0.93 15.0 0 1 316.41 198.09
  L 319.94 198.09
  A 0.65 0.65 0.0 0 1 320.59 198.74
  L 320.59 223.26
  A 0.70 0.70 0.0 0 1 319.89 223.96
  L 315.82 223.96
  A 0.77 0.77 0.0 0 1 315.05 223.15
  Q 315.30 218.07 315.14 210.81
  Q 315.13 210.12 314.77 209.80
  A 0.40 0.40 0.0 0 0 314.15 209.90
  Q 312.01 213.80 308.43 219.71
  Q 307.54 221.18 306.26 221.18
  Q 304.98 221.18 304.09 219.71
  Q 300.53 213.79 298.39 209.88
  A 0.40 0.40 0.0 0 0 297.77 209.78
  Q 297.41 210.10 297.40 210.79
  Q 297.23 218.05 297.47 223.13
  A 0.77 0.77 0.0 0 1 296.69 223.94
  L 292.62 223.93
  A 0.70 0.70 0.0 0 1 291.93 223.23
  L 291.98 198.71
  A 0.65 0.65 0.0 0 1 292.63 198.06
  L 296.16 198.07
  A 0.94 0.93 -14.9 0 1 296.97 198.53
  L 305.93 213.74
  A 0.43 0.17 67.4 0 0 306.12 213.94
  Q 306.19 213.97 306.27 213.97
  Z"
/>
<path fill="#000000" d="
  M 249.06 208.96
  A 0.88 0.88 0.0 0 0 248.18 209.91
  Q 248.33 211.96 248.39 217.09
  C 248.42 219.20 250.54 219.64 252.21 219.38
  A 1.50 1.49 -11.9 0 1 253.88 220.46
  L 254.23 221.76
  A 1.33 1.31 -16.3 0 1 253.34 223.37
  C 250.83 224.13 245.72 224.05 244.09 221.45
  C 242.34 218.65 242.65 214.64 242.86 210.18
  A 1.13 1.12 19.8 0 0 242.40 209.22
  Q 241.71 208.72 240.36 208.98
  A 0.58 0.58 0.0 0 1 239.67 208.53
  Q 239.37 207.16 239.68 205.33
  A 0.66 0.66 0.0 0 1 240.32 204.78
  Q 241.55 204.76 242.13 204.53
  A 1.01 0.98 -11.0 0 0 242.77 203.61
  L 242.77 200.77
  A 1.01 1.01 0.0 0 1 243.78 199.76
  L 247.14 199.76
  A 1.15 1.15 0.0 0 1 248.29 200.91
  L 248.29 203.66
  A 1.01 1.01 0.0 0 0 249.30 204.67
  L 252.27 204.67
  A 1.06 1.05 -90.0 0 1 253.32 205.73
  L 253.32 207.95
  A 1.01 1.01 0.0 0 1 252.31 208.96
  L 249.06 208.96
  Z"
/>
<path fill="#000000" d="
  M 190.45 204.81
  L 190.45 208.00
  A 1.12 1.11 -6.1 0 1 189.56 209.09
  L 186.29 209.77
  A 1.31 1.27 15.8 0 0 185.64 210.12
  C 183.03 212.66 183.81 220.13 184.00 223.06
  A 0.83 0.83 0.0 0 1 183.17 223.95
  L 179.17 223.95
  A 0.80 0.80 0.0 0 1 178.37 223.15
  L 178.37 204.71
  A 0.62 0.62 0.0 0 1 178.90 204.10
  Q 182.38 203.60 184.12 205.09
  A 0.86 0.85 57.1 0 0 184.88 205.26
  L 189.42 204.02
  A 0.82 0.82 0.0 0 1 190.45 204.81
  Z"
/>
<path fill="#000000" d="
  M 213.43 204.07
  A 0.49 0.49 0.0 0 1 213.88 204.76
  Q 208.71 216.50 206.50 222.17
  Q 204.05 228.46 201.78 229.88
  Q 197.74 232.41 192.77 230.41
  A 1.11 1.11 0.0 0 1 192.15 228.96
  L 193.05 226.76
  A 1.08 1.08 0.0 0 1 194.40 226.14
  C 196.80 226.96 200.11 227.20 200.03 223.69
  A 2.14 2.04 -58.6 0 0 199.86 222.91
  L 192.21 204.92
  A 0.62 0.62 0.0 0 1 192.78 204.06
  L 196.71 204.06
  A 1.19 1.18 78.3 0 1 197.80 204.78
  L 202.69 216.30
  A 0.56 0.56 0.0 0 0 203.72 216.29
  L 208.40 204.75
  A 1.10 1.09 -78.7 0 1 209.41 204.07
  L 213.43 204.07
  Z"
/>
<path fill="#000000" d="
  M 222.92 222.12
  A 0.50 0.50 0.0 0 0 222.13 222.53
  L 222.13 230.44
  A 0.95 0.95 0.0 0 1 221.18 231.39
  L 217.65 231.39
  A 1.08 1.08 0.0 0 1 216.57 230.31
  L 216.57 204.69
  A 0.59 0.58 86.1 0 1 217.07 204.11
  Q 220.36 203.59 222.45 205.07
  A 1.00 1.00 0.0 0 0 223.36 205.20
  Q 228.42 203.45 231.83 204.76
  C 239.29 207.60 239.98 218.20 233.42 222.23
  Q 227.88 225.64 222.92 222.12
  Z
  M 232.1511 213.2486
  A 4.31 4.31 0.0 0 0 227.9017 208.8789
  L 226.7018 208.8621
  A 4.31 4.31 0.0 0 0 222.3321 213.1115
  L 222.3089 214.7714
  A 4.31 4.31 0.0 0 0 226.5583 219.1411
  L 227.7582 219.1579
  A 4.31 4.31 0.0 0 0 232.1279 214.9085
  L 232.1511 213.2486
  Z"
/>
<rect fill="#000000" x="326.56" y="204.04" width="5.58" height="19.94" rx="0.58"/>
<path fill="#000000" d="
  M 337.57 223.22
  L 337.57 204.73
  A 0.64 0.63 -6.2 0 1 338.07 204.11
  Q 340.95 203.52 343.22 205.06
  A 1.20 1.18 -36.2 0 0 344.24 205.21
  C 349.48 203.61 356.25 203.54 357.28 210.46
  C 357.90 214.64 357.43 219.27 357.62 223.10
  A 0.80 0.80 0.0 0 1 356.82 223.95
  L 352.71 223.95
  A 0.73 0.72 90.0 0 1 351.99 223.22
  L 351.99 212.71
  A 3.73 3.73 0.0 0 0 347.80 209.01
  L 346.99 209.10
  A 4.35 4.35 0.0 0 0 343.18 213.42
  L 343.18 223.13
  A 0.80 0.80 0.0 0 1 342.38 223.93
  L 338.27 223.92
  A 0.70 0.70 0.0 0 1 337.57 223.22
  Z"
/>
<rect fill="#000000" x="-2.83" y="-9.94" transform="translate(365.79,214.02) rotate(0.2)" width="5.66" height="19.88" rx="0.56"/>
<path fill="#000000" d="
  M 374.69 223.94
  A 0.70 0.70 0.0 0 1 373.99 223.24
  L 374.00 204.75
  A 0.64 0.63 -6.2 0 1 374.50 204.13
  Q 377.38 203.54 379.65 205.08
  A 1.20 1.18 -36.1 0 0 380.67 205.23
  C 385.91 203.64 392.68 203.57 393.71 210.49
  C 394.33 214.67 393.86 219.30 394.04 223.13
  A 0.80 0.80 0.0 0 1 393.24 223.98
  L 389.13 223.98
  A 0.73 0.72 -90.0 0 1 388.41 223.25
  L 388.42 212.74
  A 3.73 3.73 0.0 0 0 384.23 209.04
  L 383.42 209.13
  A 4.35 4.35 0.0 0 0 379.61 213.44
  L 379.60 223.15
  A 0.80 0.80 0.0 0 1 378.80 223.95
  L 374.69 223.94
  Z"
/>
<path fill="#000000" d="
  M 414.17 221.93
  A 0.46 0.45 79.9 0 0 413.53 221.48
  C 406.06 224.82 397.53 221.59 398.31 212.22
  C 398.94 204.58 407.00 202.79 413.05 205.32
  A 0.83 0.82 -54.5 0 0 413.92 205.17
  Q 415.91 203.39 419.36 204.22
  A 0.60 0.59 7.2 0 1 419.82 204.81
  Q 419.63 210.32 419.63 221.23
  Q 419.63 229.41 412.23 230.94
  Q 405.75 232.29 400.06 229.35
  A 1.20 1.19 -60.9 0 1 399.59 227.68
  L 400.83 225.59
  A 1.20 1.20 0.0 0 1 402.47 225.17
  C 406.21 227.41 413.75 228.39 414.17 221.93
  Z
  M 414.3082 213.4320
  A 5.27 4.84 -1.5 0 0 408.9133 208.7317
  A 5.27 4.84 -1.5 0 0 403.7718 213.7080
  A 5.27 4.84 -1.5 0 0 409.1667 218.4083
  A 5.27 4.84 -1.5 0 0 414.3082 213.4320
  Z"
/>
<path fill="#000000" d="
  M 57.0400 213.9311
  A 10.81 9.93 -179.9 0 1 67.8673 204.0200
  A 10.81 9.93 -179.9 0 1 78.6600 213.9689
  A 10.81 9.93 -179.9 0 1 67.8327 223.8800
  A 10.81 9.93 -179.9 0 1 57.0400 213.9311
  Z
  M 73.07 214.02
  A 5.22 5.22 0.0 0 0 67.85 208.80
  A 5.22 5.22 0.0 0 0 62.63 214.02
  A 5.22 5.22 0.0 0 0 67.85 219.24
  A 5.22 5.22 0.0 0 0 73.07 214.02
  Z"
/>
<path fill="#000000" d="
  M 118.85 210.39
  L 117.51 209.15
  A 1.88 1.81 74.4 0 0 116.88 208.78
  Q 114.24 207.93 110.22 209.53
  A 1.70 1.70 0.0 0 1 108.03 208.62
  L 107.49 207.34
  A 1.44 1.43 69.8 0 1 108.38 205.41
  C 115.76 203.09 125.22 203.15 124.71 213.72
  Q 124.67 214.57 124.91 223.14
  A 0.71 0.70 -8.6 0 1 124.40 223.83
  Q 121.04 224.73 119.19 222.79
  A 0.79 0.78 54.7 0 0 118.28 222.63
  C 114.85 224.28 110.00 224.33 107.38 221.36
  C 104.37 217.95 107.16 213.22 111.40 212.68
  Q 112.09 212.59 118.29 212.02
  A 0.95 0.94 -26.2 0 0 118.85 210.39
  Z
  M 119.3124 217.0077
  A 3.95 2.29 -9.8 0 0 115.0302 215.4234
  A 3.95 2.29 -9.8 0 0 111.5276 218.3523
  A 3.95 2.29 -9.8 0 0 115.8098 219.9366
  A 3.95 2.29 -9.8 0 0 119.3124 217.0077
  Z"
/>
<path fill="#000000" d="
  M 277.2700 213.9511
  A 10.81 9.94 -0.1 0 1 266.4773 223.9100
  A 10.81 9.94 -0.1 0 1 255.6500 213.9889
  A 10.81 9.94 -0.1 0 1 266.4427 204.0300
  A 10.81 9.94 -0.1 0 1 277.2700 213.9511
  Z
  M 271.65 214.02
  A 5.20 5.20 0.0 0 0 266.45 208.82
  A 5.20 5.20 0.0 0 0 261.25 214.02
  A 5.20 5.20 0.0 0 0 266.45 219.22
  A 5.20 5.20 0.0 0 0 271.65 214.02
  Z"
/>
</svg>
